# xmcd
#
# Track frame offsets:
#	150
#	12948
#	24494
#	33114
#	45919
#	60208
#	71593
#	79299
#	91712
#	102333
#
# Disc length: 1560 seconds
#
# Revision: 1
# Processed by: cddbd v1.5PL3 Copyright (c) Steve Scherf et al.
# Submitted via: audiograbber 1.83.01
#
DISCID=6706160a
DTITLE=Bernard Mallet - Pic-Bois
DYEAR=2003
DGENRE=
TTITLE0=Le Pic-Bois
TTITLE1=N-40
TTITLE2=Dame de haute couture
TTITLE3=Rester cassé
TTITLE4=L'Pock
TTITLE5=Star d'académie
TTITLE6=Le vacant
TTITLE7=World trade center
TTITLE8=PNB
TTITLE9=Tes bumpeurs
EXTD=1360 Ch Theriault\nPetit Paquetville N.-B. Canada\nE8R-1H4\n(506)764-3091
EXTT0=
EXTT1=
EXTT2=
EXTT3=
EXTT4=
EXTT5=
EXTT6=
EXTT7=
EXTT8=
EXTT9=
PLAYORDER=
